<?xml version="1.0" standalone="no"?>
<!DOCTYPE svg PUBLIC "-//W3C//DTD SVG 20010904//EN"
 "http://www.w3.org/TR/2001/REC-SVG-20010904/DTD/svg10.dtd">
<svg version="1.0" xmlns="http://www.w3.org/2000/svg"
 width="4032.000000pt" height="4032.000000pt" viewBox="0 0 4032.000000 4032.000000"
 preserveAspectRatio="xMidYMid meet">
<metadata>
Created by potrace 1.14, written by Peter Selinger 2001-2017
</metadata>
<g transform="translate(0.000000,4032.000000) scale(0.100000,-0.100000)"
fill="#000000" stroke="none">
<path d="M19635 32649 c-2079 -89 -4110 -697 -5885 -1759 -732 -438 -1402
-936 -2025 -1505 -168 -153 -637 -622 -790 -790 -1010 -1107 -1816 -2388
-2373 -3777 -1205 -2998 -1202 -6336 8 -9337 343 -852 803 -1704 1325 -2454
309 -443 677 -905 1040 -1302 153 -168 622 -637 790 -790 1107 -1010 2388
-1816 3777 -2373 2990 -1202 6326 -1202 9316 0 868 348 1711 803 2474 1333
441 307 905 677 1303 1040 168 153 637 622 790 790 1010 1107 1816 2388 2373
3777 1202 2990 1202 6326 0 9316 -855 2128 -2270 3971 -4110 5349 -1436 1077
-3120 1842 -4878 2217 -1019 217 -2109 309 -3135 265z m-843 -6839 c382 -38
662 -88 936 -166 51 -15 52 -16 52 -54 0 -21 -11 -128 -25 -237 -13 -109 -29
-236 -34 -283 -6 -47 -17 -141 -26 -210 -9 -69 -20 -161 -25 -205 -5 -44 -17
-136 -25 -205 -9 -69 -20 -163 -25 -210 -6 -47 -13 -98 -16 -113 -3 -15 -10
-65 -14 -110 -5 -45 -16 -138 -25 -207 -9 -69 -20 -158 -25 -198 -4 -41 -12
-78 -17 -83 -6 -6 -26 -6 -54 0 -80 18 -296 52 -484 77 -170 22 -534 22 -680
-1 -403 -62 -775 -216 -1102 -456 -95 -70 -111 -83 -197 -159 -273 -241 -518
-547 -714 -890 -91 -160 -224 -437 -293 -610 -86 -215 -202 -593 -249 -810 -6
-30 -18 -84 -26 -120 -14 -65 -22 -108 -50 -275 -19 -112 -38 -272 -64 -520
-32 -317 -16 -934 29 -1170 7 -33 19 -96 27 -140 9 -44 20 -93 24 -110 5 -16
16 -59 26 -95 75 -283 206 -566 357 -770 100 -135 290 -321 412 -402 87 -57
271 -157 330 -178 11 -4 33 -13 50 -19 103 -42 292 -90 445 -112 116 -17 457
-18 540 -1 36 7 101 20 145 28 44 8 91 19 105 24 14 5 52 16 85 25 33 9 78 24
100 32 22 9 49 19 60 23 11 4 37 15 58 24 59 25 67 22 67 -27 0 -24 -6 -84
-14 -133 -8 -49 -22 -145 -31 -214 -9 -69 -20 -154 -25 -190 -13 -88 -36 -251
-54 -390 -107 -795 -132 -979 -152 -1106 -5 -36 -22 -44 -184 -88 -277 -75
-524 -121 -850 -158 -149 -17 -618 -16 -775 1 -481 51 -869 155 -1215 325
-186 92 -410 231 -569 354 -107 82 -424 398 -515 512 -76 96 -237 334 -286
425 -18 33 -43 76 -55 95 -51 84 -160 320 -215 465 -97 257 -173 525 -230 810
-6 33 -16 80 -21 104 -5 23 -14 75 -20 115 -46 328 -43 305 -65 561 -34 398
-5 1322 55 1765 6 41 18 131 26 200 9 69 20 143 25 165 5 22 12 63 15 90 3 28
10 73 16 100 5 28 25 129 44 225 86 435 213 898 332 1205 8 22 19 49 23 60
102 269 221 541 334 765 71 141 81 158 179 325 140 239 336 530 452 670 23 28
72 88 110 135 129 160 328 369 505 531 550 501 1210 867 1893 1049 228 60 520
112 745 131 70 6 129 13 131 15 9 9 616 3 713 -6z m5578 -129 c498 -38 798
-86 1125 -181 28 -8 74 -23 120 -40 11 -5 43 -16 70 -26 47 -16 143 -58 245
-107 87 -42 256 -151 347 -223 221 -178 406 -436 527 -734 32 -81 92 -289 106
-373 45 -257 51 -328 57 -627 7 -369 -4 -537 -56 -890 -13 -86 -58 -289 -79
-355 -11 -33 -27 -85 -36 -115 -50 -162 -184 -445 -288 -606 -316 -487 -817
-847 -1468 -1055 -52 -17 -110 -37 -128 -45 -35 -15 -35 -34 1 -34 40 -1 270
-53 312 -70 11 -5 48 -18 82 -29 34 -12 97 -37 138 -56 42 -19 78 -35 80 -35
11 0 172 -101 240 -150 147 -107 312 -293 411 -465 51 -88 124 -240 124 -258
0 -7 4 -17 8 -23 12 -13 50 -139 82 -264 54 -215 77 -638 50 -910 -15 -145
-40 -337 -51 -385 -4 -22 -18 -85 -29 -140 -19 -95 -30 -137 -65 -257 -9 -29
-20 -66 -25 -83 -18 -63 -79 -223 -133 -350 -47 -111 -196 -396 -252 -480
-282 -428 -624 -762 -1035 -1010 -125 -76 -419 -218 -518 -251 -26 -9 -60 -22
-77 -29 -16 -7 -55 -21 -85 -30 -30 -10 -64 -21 -75 -25 -11 -5 -42 -15 -70
-23 -442 -127 -841 -181 -1530 -207 -352 -13 -2962 -13 -2970 0 -3 5 -1 38 5
72 6 35 15 90 20 123 5 33 16 104 24 158 9 53 23 141 32 195 8 53 19 124 24
157 20 125 41 262 50 320 24 148 42 270 85 550 25 165 50 327 55 360 5 33 17
105 25 160 29 184 46 290 55 340 5 28 11 73 15 100 3 28 10 73 15 100 5 28 16
97 25 155 9 58 20 124 25 148 6 23 10 53 10 67 0 13 6 60 14 102 15 79 38 221
57 348 6 39 17 106 24 150 8 44 21 130 30 190 9 61 20 133 25 160 5 28 16 97
25 155 9 58 20 132 25 165 6 33 33 209 61 390 72 473 78 510 95 615 8 52 19
122 24 155 5 33 15 103 24 155 37 231 48 299 56 355 9 58 24 150 56 340 8 50
19 119 24 155 5 36 16 106 24 155 9 50 20 126 26 169 6 44 13 83 15 86 2 3 9
42 14 86 6 43 18 122 26 174 8 52 21 138 29 190 8 52 40 257 71 455 31 198 60
387 65 420 8 56 16 108 56 355 9 52 19 122 24 155 5 33 16 103 25 155 8 52 20
129 25 170 6 41 13 82 16 90 3 8 9 44 14 80 5 36 16 108 25 160 8 52 20 126
25 165 5 38 12 76 15 85 3 9 9 47 15 85 5 39 16 115 25 170 9 55 20 127 25
160 5 33 16 105 25 160 9 55 22 143 30 195 8 52 21 136 28 185 8 50 25 158 37
240 16 103 28 154 39 163 13 11 279 13 1496 9 942 -3 1533 -9 1625 -16z"/>
<path d="M23180 23813 c-56 -6 -67 -15 -74 -61 -17 -110 -58 -369 -71 -447 -8
-49 -20 -121 -26 -160 -6 -38 -17 -106 -24 -150 -7 -44 -21 -127 -30 -185 -9
-58 -20 -127 -25 -155 -5 -27 -16 -95 -25 -150 -9 -55 -23 -136 -30 -180 -7
-44 -18 -111 -24 -150 -6 -38 -16 -97 -22 -130 -6 -33 -14 -87 -19 -120 -5
-33 -16 -103 -25 -155 -9 -52 -20 -122 -25 -155 -5 -33 -16 -104 -24 -157 -9
-54 -23 -142 -31 -195 -8 -54 -17 -104 -20 -110 -8 -23 31 -32 181 -39 151 -6
449 8 534 26 185 39 266 60 315 80 11 5 54 22 96 39 166 67 316 169 444 302
108 113 157 180 224 313 125 244 181 510 181 861 0 277 -26 414 -110 590 -95
199 -253 330 -493 410 -172 58 -306 76 -587 80 -135 1 -265 1 -290 -2z"/>
<path d="M22527 19492 c-100 -8 -117 -19 -117 -81 0 -20 -5 -56 -11 -81 -5
-24 -14 -74 -19 -110 -5 -36 -16 -110 -25 -165 -9 -55 -20 -131 -25 -170 -6
-38 -12 -76 -15 -85 -3 -9 -9 -47 -15 -85 -5 -39 -16 -115 -25 -170 -9 -55
-20 -127 -24 -160 -18 -120 -142 -933 -157 -1025 -8 -52 -19 -122 -24 -155 -5
-33 -16 -107 -25 -165 -9 -58 -20 -127 -26 -155 -5 -27 -12 -78 -15 -112 -8
-73 -21 -66 157 -82 274 -26 540 -7 787 55 96 24 267 87 287 105 5 5 15 9 22
9 7 0 42 18 78 40 36 22 68 40 71 40 2 0 31 19 62 42 318 236 512 550 597 968
42 205 58 526 34 695 -46 331 -200 560 -465 693 -211 106 -434 149 -808 156
-116 2 -251 1 -299 -2z"/>
</g>
</svg>
